      <svg version="1.1" id="Calque_1" xmlns="http://www.w3.org/2000/svg" xmlns:xlink="http://www.w3.org/1999/xlink" x="0px" y="0px"
   width="120px" height="90px" viewBox="0 0 800 600" enable-background="new 0 0 800 600" xml:space="preserve">
        <g>
          <g>
            <g>
              <path fill="#FFFFFF" d="M190.3,281.541c-3.622-2.501-5.806-6.657-5.806-11.092c0-7.447,6.058-13.505,13.505-13.505
                c7.447,0,13.505,6.058,13.505,13.505v12.726l15.262,10.729l-0.013-37.859c0-10.449-8.509-18.948-18.968-18.948
                c-27.232,0-48.354,31.227-48.354,58.089c0,32.916,26.779,59.695,59.695,59.695c32.916,0,59.695-26.779,59.695-59.695
                c0-5.025-1.04-9.88-3.091-14.428c-1.233-2.734-0.016-5.949,2.718-7.182c2.736-1.234,5.949-0.016,7.182,2.717
                c2.688,5.961,4.051,12.317,4.051,18.893c0,38.904-31.651,70.555-70.555,70.555s-70.554-31.651-70.554-70.555
                c0-32.547,25.323-68.949,59.213-68.949c16.447,0,29.828,13.371,29.828,29.805l0.015,45.498l10.427,7.331
                c3.593,2.541,5.73,6.664,5.73,11.039c0,7.447-6.059,13.506-13.505,13.506s-13.505-6.059-13.505-13.506l-0.004-14.443
                L190.3,281.541z M235.518,311.151l0.002,9.163c0,2.629,2.137,4.766,4.761,4.766c2.626,0,4.763-2.137,4.763-4.763
                c0-1.54-0.759-2.996-2.032-3.896L235.518,311.151z M197.428,264.708c-2.626,0-4.762,2.135-4.762,4.761
                c0,1.562,0.776,3.031,2.078,3.929l7.447,5.236v-9.165C202.19,266.844,200.054,264.708,197.428,264.708z"/>
              <linearGradient id="SVGID_1_" gradientUnits="userSpaceOnUse" x1="206.7891" y1="337.3965" x2="206.7891" y2="289.3267">
                <stop  offset="0" style="stop-color:#FFFFFF;stop-opacity:0"/>
                <stop  offset="0.5092" style="stop-color:#FFFFFF"/>
                <stop  offset="1" style="stop-color:#B2B2B2"/>
              </linearGradient>
              <path fill="url(#SVGID_1_)" d="M211.456,295.484v37.055c0,2.998-1.426,4.857-4.425,4.857c-2.998,0-4.909-1.859-4.909-4.857
                v-43.213L211.456,295.484z"/>
              <linearGradient id="SVGID_2_" gradientUnits="userSpaceOnUse" x1="231.1509" y1="320.709" x2="231.1509" y2="305.4668">
                <stop  offset="0" style="stop-color:#FFFFFF;stop-opacity:0"/>
                <stop  offset="0.5092" style="stop-color:#FFFFFF"/>
                <stop  offset="1" style="stop-color:#B2B2B2"/>
              </linearGradient>
              <polygon fill="url(#SVGID_2_)" points="235.53,311.224 235.5,320.693 226.772,320.709 226.772,305.467       "/>
            </g>
            <g>
              <g>
                <g>
                  <path fill="#FFFFFF" d="M433.023,255.339v75.929h-4.646c-0.729,0-1.338-0.123-1.809-0.367c-0.48-0.247-0.968-0.684-1.447-1.292
                    l-44.587-58.033l-1.176-1.531l0.154,1.924c0.07,0.887,0.124,1.767,0.158,2.614c0.036,0.858,0.054,1.646,0.054,2.343v54.342h-8
                    v-75.929h4.807c0.433,0,0.799,0.024,1.087,0.072c0.267,0.045,0.502,0.118,0.699,0.216c0.203,0.102,0.412,0.252,0.621,0.445
                    c0.229,0.214,0.481,0.492,0.743,0.818l44.587,58.034l1.172,1.525l-0.148-1.918c-0.071-0.904-0.134-1.814-0.188-2.709
                    c-0.052-0.844-0.079-1.673-0.079-2.465v-54.019H433.023"/>
                </g>
                <g>
                  <path fill="#FFFFFF" d="M487.698,277.067c3.884,0,7.429,0.654,10.536,1.946c3.101,1.29,5.784,3.143,7.976,5.508
                    c2.194,2.369,3.9,5.278,5.07,8.646c1.175,3.386,1.77,7.223,1.77,11.403c0,4.216-0.595,8.062-1.77,11.429
                    c-1.17,3.352-2.877,6.252-5.069,8.62c-2.191,2.366-4.874,4.209-7.973,5.48c-3.107,1.274-6.654,1.921-10.54,1.921
                    c-3.925,0-7.499-0.646-10.622-1.922c-3.117-1.271-5.807-3.113-7.998-5.479c-2.195-2.368-3.9-5.269-5.07-8.62
                    c-1.175-3.365-1.77-7.21-1.77-11.429c0-4.184,0.595-8.02,1.77-11.403c1.17-3.369,2.875-6.278,5.07-8.647
                    c2.191-2.365,4.883-4.218,8-5.508C480.203,277.722,483.776,277.067,487.698,277.067 M487.698,325.688
                    c5.544,0,9.752-1.896,12.507-5.638c2.715-3.687,4.092-8.876,4.092-15.425c0-6.583-1.377-11.8-4.092-15.505
                    c-2.754-3.76-6.963-5.667-12.507-5.667c-2.796,0-5.274,0.488-7.365,1.451c-2.102,0.967-3.875,2.382-5.271,4.206
                    c-1.385,1.809-2.432,4.058-3.111,6.685c-0.674,2.598-1.014,5.568-1.014,8.83c0,6.549,1.385,11.738,4.119,15.427
                    C477.828,323.791,482.082,325.688,487.698,325.688"/>
                </g>
                <g>
                  <path fill="#FFFFFF" d="M588.312,277.928v53.34h-5.129c-1.099,0-1.724-0.473-2.021-1.531l-0.748-5.822l-0.157-1.231
                    l-0.833,0.921c-2.312,2.557-4.94,4.644-7.809,6.201c-2.843,1.541-6.153,2.323-9.839,2.323c-2.887,0-5.461-0.481-7.652-1.433
                    c-2.186-0.945-4.044-2.297-5.521-4.016c-1.481-1.721-2.611-3.842-3.355-6.301c-0.75-2.48-1.133-5.266-1.133-8.278v-34.173
                    h8.432v34.173c0,4.242,0.995,7.585,2.956,9.938c1.987,2.386,5.039,3.596,9.071,3.596c2.878,0,5.63-0.693,8.176-2.059
                    c2.521-1.352,4.873-3.258,6.99-5.666l0.143-0.162v-0.215v-39.605H588.312"/>
                </g>
                <g>
                  <path fill="#FFFFFF" d="M643.445,277.067c3.495,0,6.673,0.556,9.443,1.654c2.613,1.035,4.923,2.454,6.873,4.222l-1.905,3.097
                    l-0.008,0.013l-0.008,0.013c-0.328,0.603-0.801,0.884-1.487,0.884c-0.436,0-0.954-0.173-1.543-0.514
                    c-0.695-0.402-1.549-0.852-2.536-1.336c-1.011-0.496-2.225-0.959-3.607-1.378c-1.411-0.427-3.096-0.643-5.006-0.643
                    c-1.666,0-3.19,0.217-4.532,0.645c-1.35,0.432-2.521,1.034-3.485,1.789c-0.975,0.765-1.733,1.67-2.254,2.691
                    c-0.523,1.026-0.788,2.153-0.788,3.352c0,1.535,0.454,2.836,1.35,3.87c0.852,0.985,1.985,1.844,3.37,2.555
                    c1.353,0.694,2.903,1.313,4.611,1.84c1.66,0.512,3.403,1.071,5.178,1.663c1.757,0.587,3.489,1.242,5.146,1.947
                    c1.628,0.693,3.103,1.57,4.382,2.607c1.259,1.021,2.286,2.29,3.053,3.771c0.761,1.47,1.146,3.273,1.146,5.357
                    c0,2.419-0.438,4.688-1.301,6.744c-0.858,2.043-2.148,3.838-3.832,5.334c-1.693,1.503-3.801,2.705-6.265,3.572
                    c-2.475,0.87-5.379,1.312-8.631,1.312c-3.709,0-7.111-0.61-10.113-1.813c-2.838-1.139-5.301-2.598-7.325-4.34l2.006-3.248
                    c0.24-0.389,0.523-0.689,0.842-0.893c0.3-0.191,0.703-0.287,1.199-0.287c0.522,0,1.1,0.219,1.716,0.65
                    c0.723,0.506,1.612,1.074,2.645,1.688c1.048,0.626,2.342,1.204,3.844,1.718c1.522,0.52,3.43,0.783,5.673,0.783
                    c1.92,0,3.629-0.254,5.081-0.757c1.464-0.507,2.704-1.206,3.688-2.075c0.992-0.879,1.739-1.907,2.218-3.059
                    c0.476-1.141,0.717-2.373,0.717-3.663c0-1.633-0.45-3.013-1.339-4.099c-0.852-1.041-1.986-1.939-3.375-2.672
                    c-1.348-0.711-2.911-1.34-4.646-1.87c-1.659-0.506-3.411-1.057-5.207-1.638c-1.751-0.564-3.489-1.219-5.167-1.944
                    c-1.643-0.708-3.124-1.61-4.404-2.683c-1.258-1.053-2.285-2.375-3.055-3.93c-0.764-1.545-1.151-3.459-1.151-5.689
                    c0-1.99,0.418-3.929,1.242-5.763c0.823-1.835,2.041-3.471,3.621-4.86c1.586-1.397,3.568-2.527,5.892-3.36
                    C637.738,277.49,640.441,277.067,643.445,277.067"/>
                </g>
              </g>
            </g>
          </g>
          <g>
            <path fill="#FFFFFF" d="M569.595,256.345l10.417,15.519h-7.271l-6.293-10.201h-0.218l-6.293,10.201h-7.164l10.202-15.519H569.595z
              "/>
          </g>
        </g>
        </svg>